<svg xmlns="http://www.w3.org/2000/svg" viewBox="0 0 200 280" fill="#032D60">
  <!-- Einstein: Salesforce Einstein mascot silhouette -->
  <!-- Wild hair -->
  <path d="M38 75 Q30 50 45 35 Q50 28 55 32 Q52 20 65 18 Q72 16 75 22 Q78 10 92 8 Q105 6 108 18 Q115 8 128 12 Q138 16 136 28 Q148 22 152 35 Q162 50 156 75"/>
  <path d="M38 75 Q32 60 42 48 Q48 40 56 45 Q52 32 66 28 Q76 26 78 35 Q82 22 95 20 Q108 22 112 35 Q116 26 128 28 Q140 32 138 45 Q146 40 152 48 Q162 60 156 75"/>
  <!-- Head -->
  <ellipse cx="97" cy="90" rx="50" ry="46"/>
  <!-- Face area -->
  <ellipse cx="97" cy="94" rx="38" ry="34" fill="#FFFFFF" opacity="0.1"/>
  <!-- Eyes -->
  <circle cx="80" cy="84" r="6" fill="#FFFFFF" opacity="0.25"/>
  <circle cx="114" cy="84" r="6" fill="#FFFFFF" opacity="0.25"/>
  <!-- Glasses -->
  <circle cx="80" cy="84" r="12" fill="none" stroke="#FFFFFF" stroke-width="2" opacity="0.2"/>
  <circle cx="114" cy="84" r="12" fill="none" stroke="#FFFFFF" stroke-width="2" opacity="0.2"/>
  <line x1="92" y1="84" x2="102" y2="84" stroke="#FFFFFF" stroke-width="2" opacity="0.2"/>
  <!-- Mustache -->
  <path d="M80 102 Q88 108 97 102 Q106 108 114 102" fill="none" stroke="#FFFFFF" stroke-width="2.5" opacity="0.15"/>
  <!-- Smile -->
  <path d="M82 110 Q97 120 112 110" fill="none" stroke="#FFFFFF" stroke-width="2" opacity="0.12"/>
  <!-- Bow tie -->
  <polygon points="82,136 97,144 82,152" fill="#FFFFFF" opacity="0.15"/>
  <polygon points="112,136 97,144 112,152" fill="#FFFFFF" opacity="0.15"/>
  <circle cx="97" cy="144" r="4" fill="#FFFFFF" opacity="0.2"/>
  <!-- Body / suit -->
  <path d="M52 148 Q52 136 68 132 L82 130 Q90 128 97 128 Q104 128 112 130 L126 132 Q142 136 142 148 L146 230 Q146 245 132 250 L62 250 Q48 245 48 230Z"/>
  <!-- Suit lapels -->
  <path d="M82 132 L97 175 L78 148Z" fill="#FFFFFF" opacity="0.08"/>
  <path d="M112 132 L97 175 L116 148Z" fill="#FFFFFF" opacity="0.08"/>
  <!-- Legs -->
  <rect x="62" y="248" width="28" height="28" rx="6"/>
  <rect x="104" y="248" width="28" height="28" rx="6"/>
  <!-- Arms -->
  <path d="M52 150 Q35 165 32 185 Q30 198 38 200 Q46 202 48 192 L52 172"/>
  <path d="M142 150 Q159 165 162 185 Q164 198 156 200 Q148 202 146 192 L142 172"/>
</svg>
